<svg xmlns="http://www.w3.org/2000/svg" width="1084" height="690" viewBox="0 0 1084 690" version="1.1"><path d="M 56 30.896 C 20.217 50.682, 0.544 62.103, 0.625 63.042 C 0.694 63.844, 53.609 160.575, 118.214 278 L 235.678 491.500 195.443 491.761 L 155.207 492.022 209.520 590.761 L 263.833 689.500 378.504 689.754 L 493.176 690.008 490.814 685.754 C 489.515 683.414, 404.108 528.163, 301.020 340.750 C 197.932 153.337, 113.118 0.047, 112.544 0.104 C 111.970 0.160, 86.525 14.017, 56 30.896 M 406 30.896 C 370.217 50.682, 350.544 62.103, 350.625 63.042 C 350.694 63.844, 403.609 160.575, 468.214 278 L 585.678 491.500 545.443 491.761 L 505.207 492.022 559.520 590.761 L 613.833 689.500 724.916 689.754 L 836 690.009 836 683.493 L 836 676.978 649.793 338.489 C 547.379 152.320, 463.117 0.047, 462.543 0.104 C 461.969 0.160, 436.525 14.017, 406 30.896 M 756.654 30.501 C 726.488 47.161, 701.368 61.232, 700.832 61.768 C 700.197 62.403, 740.993 137.541, 817.486 276.622 C 882.183 394.255, 935.453 490.840, 935.865 491.256 C 936.276 491.673, 969.767 491.898, 1010.288 491.756 L 1083.963 491.500 948.776 245.750 C 874.422 110.587, 813.118 0.047, 812.544 0.105 C 811.970 0.162, 786.819 13.841, 756.654 30.501" stroke="none" fill="#ff6404" fill-rule="evenodd"/></svg>